<svg xmlns="http://www.w3.org/2000/svg" viewBox="0 0 600 300" fill="none">
  <rect width="600" height="300" fill="#fdfaf5"/>
  <g stroke="#5c4632" stroke-width="2">
    <!-- Clé de sol -->
    <path d="M120 100 C115 70, 150 60, 140 110 S160 170, 130 180" fill="none"/>
    <!-- Violon -->
    <path d="M170 130 C160 100, 200 100, 190 130 S200 170, 170 180" fill="none"/>
    <!-- Trompette -->
    <path d="M220 150 L250 150 C255 140, 265 140, 270 150 L300 150" />
    <!-- Piano -->
    <rect x="320" y="120" width="50" height="30" fill="#5c4632"/>
    <!-- Chœur -->
    <circle cx="380" cy="100" r="10"/>
    <circle cx="400" cy="100" r="10"/>
    <circle cx="420" cy="100" r="10"/>
    <circle cx="440" cy="100" r="10"/>
    <circle cx="460" cy="100" r="10"/>
    <!-- Texte -->
    <text x="150" y="240" font-family="Georgia, serif" font-size="40" fill="#5c4632">C.A.S.T.</text>
    <text x="120" y="270" font-family="Georgia, serif" font-size="20" fill="#5c4632">
      Chœur Artistique & Spirituel de Tanà
    </text>
    <!-- Flûte -->
    <line x1="100" y1="280" x2="500" y2="280" stroke="#5c4632" stroke-width="3"/>
    <circle cx="150" cy="280" r="3" fill="#5c4632"/>
    <circle cx="200" cy="280" r="3" fill="#5c4632"/>
    <circle cx="250" cy="280" r="3" fill="#5c4632"/>
    <circle cx="300" cy="280" r="3" fill="#5c4632"/>
    <circle cx="350" cy="280" r="3" fill="#5c4632"/>
    <circle cx="400" cy="280" r="3" fill="#5c4632"/>
  </g>
</svg>